<?xml version="1.0" encoding="UTF-8"?>
<!--Generator: Apple Native CoreSVG 175.5-->
<!DOCTYPE svg
PUBLIC "-//W3C//DTD SVG 1.1//EN"
       "http://www.w3.org/Graphics/SVG/1.1/DTD/svg11.dtd">
<svg version="1.1" xmlns="http://www.w3.org/2000/svg" xmlns:xlink="http://www.w3.org/1999/xlink" width="9.96094" height="9.96582">
 <g>
  <rect height="9.96582" opacity="0" width="9.96094" x="0" y="0"/>
  <path d="M4.98047 9.96094C7.70508 9.96094 9.96094 7.7002 9.96094 4.98047C9.96094 2.25586 7.7002 0 4.97559 0C2.25586 0 0 2.25586 0 4.98047C0 7.7002 2.26074 9.96094 4.98047 9.96094ZM2.59766 4.98535C2.59766 4.73145 2.77344 4.55566 3.02734 4.55566L4.55566 4.55566L4.55566 3.02734C4.55566 2.77344 4.72656 2.59277 4.97559 2.59277C5.22949 2.59277 5.40527 2.77344 5.40527 3.02734L5.40527 4.55566L6.93848 4.55566C7.1875 4.55566 7.36816 4.73145 7.36816 4.98535C7.36816 5.23438 7.1875 5.40039 6.93848 5.40039L5.40527 5.40039L5.40527 6.93359C5.40527 7.1875 5.22949 7.36328 4.97559 7.36328C4.72656 7.36328 4.55566 7.18262 4.55566 6.93359L4.55566 5.40039L3.02734 5.40039C2.77344 5.40039 2.59766 5.23438 2.59766 4.98535Z" fill="#ffffff" fill-opacity="0.85"/>
 </g>
</svg>
