<?xml version="1.0" encoding="UTF-8"?>
<!--Generator: Apple Native CoreSVG 175.5-->
<!DOCTYPE svg
PUBLIC "-//W3C//DTD SVG 1.1//EN"
       "http://www.w3.org/Graphics/SVG/1.1/DTD/svg11.dtd">
<svg version="1.1" xmlns="http://www.w3.org/2000/svg" xmlns:xlink="http://www.w3.org/1999/xlink" width="8.48145" height="5.2002">
 <g>
  <rect height="5.2002" opacity="0" width="8.48145" x="0" y="0"/>
  <path d="M4.24316 5.2002C4.36523 5.2002 4.4873 5.15137 4.57031 5.05859L8.34961 1.18652C8.43262 1.10352 8.48145 0.996094 8.48145 0.874023C8.48145 0.620117 8.29102 0.424805 8.03711 0.424805C7.91504 0.424805 7.80273 0.473633 7.71973 0.551758L3.97949 4.375L4.50195 4.375L0.761719 0.551758C0.683594 0.473633 0.571289 0.424805 0.444336 0.424805C0.19043 0.424805 0 0.620117 0 0.874023C0 0.996094 0.0488281 1.10352 0.131836 1.19141L3.91113 5.05859C4.00391 5.15137 4.11621 5.2002 4.24316 5.2002Z" fill="#ffffff" fill-opacity="0.85"/>
 </g>
</svg>
